<svg version="1.1" viewBox="0.0 0.0 786.7742782152231 621.0498687664042" fill="none" stroke="none" stroke-linecap="square" stroke-miterlimit="10" xmlns:xlink="http://www.w3.org/1999/xlink" xmlns="http://www.w3.org/2000/svg"><clipPath id="p.0"><path d="m0 0l786.7743 0l0 621.04987l-786.7743 0l0 -621.04987z" clip-rule="nonzero"/></clipPath><g clip-path="url(#p.0)"><path fill="#000000" fill-opacity="0.0" d="m0 0l786.7743 0l0 621.04987l-786.7743 0z" fill-rule="evenodd"/><path fill="#eb806d" d="m215.96326 378.77167l177.02362 -172.47244l177.02362 172.47244z" fill-rule="evenodd"/><path stroke="#c76c5c" stroke-width="4.0" stroke-linejoin="round" stroke-linecap="butt" d="m215.96326 378.77167l177.02362 -172.47244l177.02362 172.47244z" fill-rule="evenodd"/><path fill="#415f8e" d="m15.965867 9.084113l200.0 0l0 605.0079l-200.0 0z" fill-rule="evenodd"/><path stroke="#1c4587" stroke-width="1.0" stroke-linejoin="round" stroke-linecap="butt" d="m15.965867 9.084113l200.0 0l0 605.0079l-200.0 0z" fill-rule="evenodd"/><path fill="#415f8e" d="m568.21783 9.084013l200.0 0l0 605.0079l-200.0 0z" fill-rule="evenodd"/><path stroke="#073763" stroke-width="1.0" stroke-linejoin="round" stroke-linecap="butt" d="m568.21783 9.084013l200.0 0l0 605.0079l-200.0 0z" fill-rule="evenodd"/><path fill="#6d9eeb" d="m215.96326 380.53302l351.1181 0l0 233.57483l-351.1181 0z" fill-rule="evenodd"/><path stroke="#3c78d8" stroke-width="1.0" stroke-linejoin="round" stroke-linecap="butt" d="m215.96326 380.53302l351.1181 0l0 233.57483l-351.1181 0z" fill-rule="evenodd"/><path fill="#ffcf76" d="m30.013123 25.08399l171.90552 0l0 32.661415l-171.90552 0z" fill-rule="evenodd"/><path stroke="#1c4587" stroke-width="1.0" stroke-linejoin="round" stroke-linecap="butt" d="m30.013123 25.08399l171.90552 0l0 32.661415l-171.90552 0z" fill-rule="evenodd"/><path fill="#ffcf76" d="m30.013123 64.08137l171.90552 0l0 32.661415l-171.90552 0z" fill-rule="evenodd"/><path stroke="#1c4587" stroke-width="1.0" stroke-linejoin="round" stroke-linecap="butt" d="m30.013123 64.08137l171.90552 0l0 32.661415l-171.90552 0z" fill-rule="evenodd"/><path fill="#ffcf76" d="m30.013123 104.74278l171.90552 0l0 32.661423l-171.90552 0z" fill-rule="evenodd"/><path stroke="#1c4587" stroke-width="1.0" stroke-linejoin="round" stroke-linecap="butt" d="m30.013123 104.74278l171.90552 0l0 32.661423l-171.90552 0z" fill-rule="evenodd"/><path fill="#ffcf76" d="m30.013123 143.74016l171.90552 0l0 32.661423l-171.90552 0z" fill-rule="evenodd"/><path stroke="#1c4587" stroke-width="1.0" stroke-linejoin="round" stroke-linecap="butt" d="m30.013123 143.74016l171.90552 0l0 32.661423l-171.90552 0z" fill-rule="evenodd"/><path fill="#ffcf76" d="m30.013123 184.40158l171.90552 0l0 32.661407l-171.90552 0z" fill-rule="evenodd"/><path stroke="#1c4587" stroke-width="1.0" stroke-linejoin="round" stroke-linecap="butt" d="m30.013123 184.40158l171.90552 0l0 32.661407l-171.90552 0z" fill-rule="evenodd"/><path fill="#ffcf76" d="m30.013123 223.39896l171.90552 0l0 32.661407l-171.90552 0z" fill-rule="evenodd"/><path stroke="#1c4587" stroke-width="1.0" stroke-linejoin="round" stroke-linecap="butt" d="m30.013123 223.39896l171.90552 0l0 32.661407l-171.90552 0z" fill-rule="evenodd"/><path fill="#ffcf76" d="m30.013123 264.06036l171.90552 0l0 32.661407l-171.90552 0z" fill-rule="evenodd"/><path stroke="#1c4587" stroke-width="1.0" stroke-linejoin="round" stroke-linecap="butt" d="m30.013123 264.06036l171.90552 0l0 32.661407l-171.90552 0z" fill-rule="evenodd"/><path fill="#ffcf76" d="m30.013123 303.05774l171.90552 0l0 32.661407l-171.90552 0z" fill-rule="evenodd"/><path stroke="#1c4587" stroke-width="1.0" stroke-linejoin="round" stroke-linecap="butt" d="m30.013123 303.05774l171.90552 0l0 32.661407l-171.90552 0z" fill-rule="evenodd"/><path fill="#ffcf76" d="m582.2651 25.08399l171.90552 0l0 32.661415l-171.90552 0z" fill-rule="evenodd"/><path stroke="#1c4587" stroke-width="1.0" stroke-linejoin="round" stroke-linecap="butt" d="m582.2651 25.08399l171.90552 0l0 32.661415l-171.90552 0z" fill-rule="evenodd"/><path fill="#ffcf76" d="m582.2651 64.08137l171.90552 0l0 32.661415l-171.90552 0z" fill-rule="evenodd"/><path stroke="#1c4587" stroke-width="1.0" stroke-linejoin="round" stroke-linecap="butt" d="m582.2651 64.08137l171.90552 0l0 32.661415l-171.90552 0z" fill-rule="evenodd"/><path fill="#ffcf76" d="m582.2651 104.74278l171.90552 0l0 32.661423l-171.90552 0z" fill-rule="evenodd"/><path stroke="#1c4587" stroke-width="1.0" stroke-linejoin="round" stroke-linecap="butt" d="m582.2651 104.74278l171.90552 0l0 32.661423l-171.90552 0z" fill-rule="evenodd"/><path fill="#ffcf76" d="m582.2651 143.74016l171.90552 0l0 32.661423l-171.90552 0z" fill-rule="evenodd"/><path stroke="#1c4587" stroke-width="1.0" stroke-linejoin="round" stroke-linecap="butt" d="m582.2651 143.74016l171.90552 0l0 32.661423l-171.90552 0z" fill-rule="evenodd"/><path fill="#ffcf76" d="m582.2651 184.40158l171.90552 0l0 32.661407l-171.90552 0z" fill-rule="evenodd"/><path stroke="#1c4587" stroke-width="1.0" stroke-linejoin="round" stroke-linecap="butt" d="m582.2651 184.40158l171.90552 0l0 32.661407l-171.90552 0z" fill-rule="evenodd"/><path fill="#ffcf76" d="m582.2651 223.39896l171.90552 0l0 32.661407l-171.90552 0z" fill-rule="evenodd"/><path stroke="#1c4587" stroke-width="1.0" stroke-linejoin="round" stroke-linecap="butt" d="m582.2651 223.39896l171.90552 0l0 32.661407l-171.90552 0z" fill-rule="evenodd"/><path fill="#ffcf76" d="m582.2651 264.06036l171.90552 0l0 32.661407l-171.90552 0z" fill-rule="evenodd"/><path stroke="#1c4587" stroke-width="1.0" stroke-linejoin="round" stroke-linecap="butt" d="m582.2651 264.06036l171.90552 0l0 32.661407l-171.90552 0z" fill-rule="evenodd"/><path fill="#ffcf76" d="m582.2651 303.05774l171.90552 0l0 32.661407l-171.90552 0z" fill-rule="evenodd"/><path stroke="#1c4587" stroke-width="1.0" stroke-linejoin="round" stroke-linecap="butt" d="m582.2651 303.05774l171.90552 0l0 32.661407l-171.90552 0z" fill-rule="evenodd"/><path fill="#776037" d="m326.83203 614.09186l0 -55.7323l0 0c0 -30.78009 25.60083 -55.73227 57.18109 -55.73227c31.580261 0 57.18109 24.952179 57.18109 55.73227l0 55.7323z" fill-rule="evenodd"/><path stroke="#000000" stroke-width="1.0" stroke-linejoin="round" stroke-linecap="butt" d="m326.83203 614.09186l0 -55.7323l0 0c0 -30.78009 25.60083 -55.73227 57.18109 -55.73227c31.580261 0 57.18109 24.952179 57.18109 55.73227l0 55.7323z" fill-rule="evenodd"/></g></svg>